<?xml version="1.0" encoding="UTF-8"?>
<svg version="1.1" xmlns="http://www.w3.org/2000/svg" width="512" height="512">
<path d="M0 0 C1.25425781 -0.01224609 2.50851562 -0.02449219 3.80078125 -0.03710938 C17.41011177 -0.05871149 17.41011177 -0.05871149 23.8125 3.8125 C30.64277493 10.82737695 31.62417328 20.32423848 33.3125 29.5625 C33.70017801 31.62867216 34.09119688 33.69416105 34.48493958 35.75918579 C34.8374715 37.61613748 35.18106279 39.47477991 35.52416992 41.33349609 C35.98438629 44.11740888 35.98438629 44.11740888 37.125 46.1875 C39.76080762 47.6773043 42.58399598 48.77035287 45.375 49.9375 C46.13941406 50.27910156 46.90382813 50.62070313 47.69140625 50.97265625 C48.43777344 51.28589844 49.18414062 51.59914062 49.953125 51.921875 C50.6327832 52.21288086 51.31244141 52.50388672 52.01269531 52.80371094 C56.84695605 53.6820579 60.82664877 50.18666886 64.6171875 47.5625 C65.65230469 46.85609375 66.68742188 46.1496875 67.75390625 45.421875 C69.91267089 43.93593833 72.06893946 42.44636864 74.22265625 40.953125 C87.37316088 32.00098023 87.37316088 32.00098023 96.05078125 33.5546875 C103.76806633 35.90911346 109.33506645 42.11363551 114.9375 47.625 C115.58404541 48.25744629 116.23059082 48.88989258 116.89672852 49.54150391 C121.69316891 54.38734058 126.30094394 59.55722533 127.0625 66.625 C127.15402344 67.30433594 127.24554688 67.98367187 127.33984375 68.68359375 C126.50871649 78.37000416 119.67511429 85.82630678 113.99707031 93.2668457 C108.95326062 99.39836154 108.95326062 99.39836154 107.23754883 106.78808594 C108.00855783 109.08085458 108.96693542 111.06864454 110.125 113.1875 C110.49431641 114.65316406 110.49431641 114.65316406 110.87109375 116.1484375 C111.6473091 118.85861314 112.48288057 120.88767305 114.125 123.1875 C117.25812866 124.84655521 120.46494803 125.30969403 123.94873047 125.83496094 C128.66403896 126.59880494 133.3272555 127.63904173 138 128.625 C139.49817261 128.91564331 139.49817261 128.91564331 141.02661133 129.2121582 C148.18478469 130.68280134 152.84543504 132.23022654 157.4375 138.1875 C160.95873301 144.4474698 160.34514518 150.822575 160.36523438 157.8671875 C160.3749037 159.91708527 160.4059364 161.9659637 160.4375 164.015625 C160.49887962 179.60604937 160.49887962 179.60604937 155.67260742 184.72924805 C152.37326044 187.58934913 150.08616287 189.09850344 145.75 189.5 C142.125 189.1875 142.125 189.1875 140.3125 187.125 C138.34347991 184.96762653 138.34347991 184.96762653 135.9765625 185.109375 C133.34088263 185.38510766 130.74158188 185.7685422 128.125 186.1875 C126.41763629 186.38363309 124.709326 186.57177644 123 186.75 C121.081875 186.9665625 121.081875 186.9665625 119.125 187.1875 C119.228125 187.909375 119.33125 188.63125 119.4375 189.375 C119.125 192.1875 119.125 192.1875 116.8515625 194.33203125 C113.50520437 197.83659829 111.97979004 201.24323475 110.1875 205.6875 C109.69540039 206.80705078 109.69540039 206.80705078 109.19335938 207.94921875 C108.89365234 208.67753906 108.59394531 209.40585937 108.28515625 210.15625 C107.87728882 211.13754883 107.87728882 211.13754883 107.46118164 212.13867188 C106.67383817 216.93706432 110.16040046 220.94876902 112.75 224.71484375 C113.80960937 226.27428711 113.80960937 226.27428711 114.890625 227.86523438 C116.37838722 230.0357546 117.86796714 232.20503003 119.359375 234.37304688 C120.41898437 235.93442383 120.41898437 235.93442383 121.5 237.52734375 C122.14710938 238.46956787 122.79421875 239.41179199 123.4609375 240.38256836 C125.98917998 244.64415549 127.56633925 248.64669535 127 253.625 C126.93554688 254.32496094 126.87109375 255.02492188 126.8046875 255.74609375 C124.67024698 263.41290595 119.32629268 268.44698802 113.8125 273.875 C113.07837891 274.62072266 112.34425781 275.36644531 111.58789062 276.13476562 C105.95959053 281.73310139 100.50935727 286.67238203 92.19384766 287.27368164 C82.26006028 286.85987152 74.52957663 279.83928328 66.99072266 274.05957031 C60.89032699 269.01716275 60.89032699 269.01716275 53.52880859 267.30004883 C51.23504935 268.07123062 49.24531079 269.02997784 47.125 270.1875 C45.65933594 270.55681641 45.65933594 270.55681641 44.1640625 270.93359375 C41.45388686 271.7098091 39.42482695 272.54538057 37.125 274.1875 C35.46586145 277.32078604 34.99925005 280.53143399 34.47314453 284.015625 C33.7211706 288.7067611 32.71512314 293.34912701 31.75 298 C31.5646167 298.99040283 31.3792334 299.98080566 31.18823242 301.0012207 C29.72560441 308.21453929 27.71638202 313.49396348 21.625 318.0625 C14.88723681 321.09449343 7.483967 320.37130543 0.25 320.375 C-1.00425781 320.38724609 -2.25851563 320.39949219 -3.55078125 320.41210938 C-17.16011177 320.43371149 -17.16011177 320.43371149 -23.5625 316.5625 C-30.39671766 309.54357376 -31.3097871 300.11992636 -32.9375 290.875 C-33.41496043 288.16791037 -33.90785786 285.46429628 -34.41015625 282.76171875 C-34.620354 281.57151123 -34.83055176 280.38130371 -35.04711914 279.1550293 C-35.89055293 276.13175072 -36.39271908 275.01584067 -38.875 273.1875 C-41.3291037 271.97737301 -43.72177591 270.89751534 -46.25 269.875 C-46.91 269.58560547 -47.57 269.29621094 -48.25 268.99804688 C-52.17467651 267.38854401 -52.17467651 267.38854401 -56.26733398 267.89770508 C-59.14008358 269.31861474 -61.64417111 270.96259743 -64.26171875 272.8125 C-65.28330078 273.51890625 -66.30488281 274.2253125 -67.35742188 274.953125 C-69.48101687 276.43355929 -71.59832409 277.92305727 -73.70898438 279.421875 C-80.42697246 284.03812261 -86.83960174 288.00088106 -95.26806641 286.86499023 C-102.26351196 285.23812358 -106.93240782 280.08481653 -111.875 275.1875 C-112.77089844 274.34058594 -113.66679687 273.49367188 -114.58984375 272.62109375 C-121.29425363 266.17265253 -125.82003739 261.11658867 -127.08984375 251.69140625 C-126.25871649 242.00499584 -119.42511429 234.54869322 -113.74707031 227.1081543 C-108.70326062 220.97663846 -108.70326062 220.97663846 -106.98754883 213.58691406 C-107.75855783 211.29414542 -108.71693542 209.30635546 -109.875 207.1875 C-110.12121094 206.21039063 -110.36742187 205.23328125 -110.62109375 204.2265625 C-111.3973091 201.51638686 -112.23288057 199.48732695 -113.875 197.1875 C-117.00812866 195.52844479 -120.21494803 195.06530597 -123.69873047 194.54003906 C-128.41403896 193.77619506 -133.0772555 192.73595827 -137.75 191.75 C-138.74878174 191.55623779 -139.74756348 191.36247559 -140.77661133 191.1628418 C-147.93478469 189.69219866 -152.59543504 188.14477346 -157.1875 182.1875 C-160.71665938 175.91343888 -160.09516081 169.5129204 -160.11523438 162.45288086 C-160.1249201 160.39200158 -160.15596078 158.33212913 -160.1875 156.27148438 C-160.22084335 147.78143449 -159.68078456 142.59659002 -155.125 135.4375 C-152.22385518 132.53635518 -149.79613107 131.38377728 -145.875 130.1875 C-142.22916 130.309028 -139.88991831 130.4344961 -136.9375 132.625 C-135.875 134.1875 -135.875 134.1875 -135.875 136.1875 C-132.92690354 135.70366358 -129.99769903 135.17800851 -127.0625 134.625 C-126.22912109 134.49287109 -125.39574219 134.36074219 -124.53710938 134.22460938 C-122.13687938 133.75227496 -120.08420761 133.24135136 -117.875 132.1875 C-116.37129259 129.64551842 -115.69112776 127.93300935 -114.875 125.1875 C-114.19012007 123.62410299 -113.48435807 122.06974379 -112.76171875 120.5234375 C-112.02817091 118.87000229 -111.29510523 117.21635308 -110.5625 115.5625 C-110.17771484 114.72976562 -109.79292969 113.89703125 -109.39648438 113.0390625 C-109.04263672 112.22953125 -108.68878906 111.42 -108.32421875 110.5859375 C-107.83441528 109.49804932 -107.83441528 109.49804932 -107.3347168 108.38818359 C-106.50898566 104.43537401 -108.49107868 101.80478195 -110.5390625 98.51196289 C-111.18617188 97.5708667 -111.83328125 96.62977051 -112.5 95.66015625 C-113.20640625 94.62052734 -113.9128125 93.58089844 -114.640625 92.50976562 C-116.12838722 90.3392454 -117.61796714 88.16996997 -119.109375 86.00195312 C-119.81578125 84.96103516 -120.5221875 83.92011719 -121.25 82.84765625 C-121.89710938 81.90543213 -122.54421875 80.96320801 -123.2109375 79.99243164 C-125.73917998 75.73084451 -127.31633925 71.72830465 -126.75 66.75 C-126.68554688 66.05003906 -126.62109375 65.35007812 -126.5546875 64.62890625 C-124.42024698 56.96209405 -119.07629268 51.92801198 -113.5625 46.5 C-112.82837891 45.75427734 -112.09425781 45.00855469 -111.33789062 44.24023438 C-105.70959053 38.64189861 -100.25935727 33.70261797 -91.94384766 33.10131836 C-82.01006028 33.51512848 -74.27957663 40.53571672 -66.74072266 46.31542969 C-60.64032699 51.35783725 -60.64032699 51.35783725 -53.27880859 53.07495117 C-50.98504935 52.30376938 -48.99531079 51.34502216 -46.875 50.1875 C-45.89789063 49.94128906 -44.92078125 49.69507813 -43.9140625 49.44140625 C-41.20388686 48.6651909 -39.17482695 47.82961943 -36.875 46.1875 C-35.21586145 43.05421396 -34.74925005 39.84356601 -34.22314453 36.359375 C-33.4711706 31.6682389 -32.46512314 27.02587299 -31.5 22.375 C-31.3146167 21.38459717 -31.1292334 20.39419434 -30.93823242 19.3737793 C-29.47560441 12.16046071 -27.46638202 6.88103652 -21.375 2.3125 C-14.63723681 -0.71949343 -7.233967 0.00369457 0 0 Z M19.125 117.1875 C18.72152344 117.69152344 18.31804687 118.19554687 17.90234375 118.71484375 C16.125 120.1875 16.125 120.1875 12.75390625 120.19140625 C11.39736523 120.05450916 10.04189063 119.90674941 8.6875 119.75 C-4.58443835 118.6131309 -15.64312777 121.07101344 -26.53515625 129.1640625 C-34.40747821 135.97184677 -39.40583613 145.96172591 -40.8125 156.25 C-41.43806816 168.50722621 -36.98063931 180.00816594 -28.875 189.1875 C-17.83123822 198.50688494 -7.23131837 201.54788134 6.98632812 200.46240234 C16.22834743 199.27444415 25.06630355 193.99626355 31.02734375 186.93359375 C38.44748936 176.90933784 42.33967488 166.45100976 40.5625 153.9375 C39.38352818 148.05100238 36.84773351 142.87404286 34.171875 137.546875 C32.81457743 133.19136788 33.53043732 131.37588465 35.125 127.1875 C28.10840173 120.08727648 28.10840173 120.08727648 19.125 117.1875 Z " fill="#0572CD" transform="translate(255.875,95.8125)"/>
<path d="M0 0 C1.16781006 0.00523682 2.33562012 0.01047363 3.53881836 0.01586914 C4.79887695 0.0190918 6.05893555 0.02231445 7.35717773 0.02563477 C8.6976732 0.03399136 10.03816799 0.04245632 11.37866211 0.05102539 C12.72306153 0.05603879 14.06746271 0.06060197 15.41186523 0.06469727 C18.71334151 0.07653051 22.01473014 0.09301568 25.31616211 0.11352539 C25.84160311 2.41703281 26.36656507 4.72064753 26.89086914 7.02441406 C27.34365436 9.01185634 27.79777109 10.99899571 28.25317383 12.98583984 C29.3548983 17.80830046 30.43542756 22.63170423 31.43334961 27.47680664 C31.60447266 28.29358887 31.7755957 29.11037109 31.9519043 29.9519043 C32.27171428 31.48743906 32.58264878 33.02485622 32.88354492 34.56420898 C33.68371237 38.36544792 34.29658735 40.64706251 37.31616211 43.11352539 C39.30252211 44.08147734 39.30252211 44.08147734 41.51928711 44.79711914 C42.33526367 45.08522461 43.15124023 45.37333008 43.99194336 45.67016602 C44.84143555 45.96084961 45.69092773 46.2515332 46.56616211 46.55102539 C55.96083674 49.78180608 55.96083674 49.78180608 60.05053711 52.33618164 C63.64760472 54.29391581 65.30158887 54.77200037 69.31616211 54.11352539 C72.44527477 52.58696422 72.44527477 52.58696422 75.56616211 50.36352539 C76.15316895 49.97245605 76.74017578 49.58138672 77.3449707 49.1784668 C80.13555263 47.31301951 82.89573686 45.40475107 85.6550293 43.4934082 C87.27696597 42.37112952 88.90197397 41.25327655 90.5300293 40.13989258 C92.11977099 39.05109014 93.70143412 37.95038392 95.27416992 36.8371582 C96.36616699 36.08837402 96.36616699 36.08837402 97.48022461 35.32446289 C98.12427246 34.87377441 98.76832031 34.42308594 99.43188477 33.95874023 C101.31616211 33.11352539 101.31616211 33.11352539 103.296875 33.24780273 C107.67167091 35.12339532 110.80677791 39.0498569 114.12866211 42.36352539 C115.33039063 43.51014648 115.33039063 43.51014648 116.55639648 44.67993164 C117.30856445 45.42629883 118.06073242 46.17266602 118.83569336 46.94165039 C119.87367065 47.9611377 119.87367065 47.9611377 120.93261719 49.0012207 C122.31616211 51.11352539 122.31616211 51.11352539 122.31103516 53.45996094 C121.00720869 56.93757809 119.03921403 59.75836448 116.87866211 62.74243164 C115.97405344 64.03798384 115.07043947 65.33423104 114.16772461 66.63110352 C112.74959278 68.65054865 111.32486276 70.66395909 109.8815918 72.66552734 C102.47463453 82.9483834 102.47463453 82.9483834 100.37524414 95.26074219 C100.2710138 100.29351735 98.70268602 104.94925768 97.25366211 109.73852539 C96.78947876 111.29494751 96.78947876 111.29494751 96.31591797 112.8828125 C93.40394609 122.34399046 89.71390857 131.25621248 85.31616211 140.11352539 C84.99534668 140.77143066 84.67453125 141.42933594 84.34399414 142.10717773 C72.19632531 166.81586928 53.38668358 187.83858566 31.31616211 204.11352539 C30.74833008 204.53633789 30.18049805 204.95915039 29.59545898 205.39477539 C11.3774081 218.78117329 -18.43919876 235.55112884 -41.80883789 233.86352539 C-48.35756175 233.67431668 -52.55927686 237.42983966 -57.68383789 241.11352539 C-59.61730535 242.41660296 -61.56165851 243.70228093 -63.50732422 244.98706055 C-65.41096306 246.24462581 -67.30832701 247.51102091 -69.20336914 248.78149414 C-69.78812012 249.16869629 -70.37287109 249.55589844 -70.9753418 249.95483398 C-72.64180951 251.085022 -74.26346787 252.28040712 -75.88305664 253.47680664 C-78.68383789 255.11352539 -78.68383789 255.11352539 -80.59985352 254.94335938 C-85.03295526 253.17811654 -88.17177395 249.17986699 -91.49633789 245.86352539 C-92.29749023 245.09911133 -93.09864258 244.33469727 -93.92407227 243.54711914 C-94.67624023 242.80075195 -95.4284082 242.05438477 -96.20336914 241.28540039 C-97.24134644 240.26591309 -97.24134644 240.26591309 -98.30029297 239.22583008 C-99.68383789 237.11352539 -99.68383789 237.11352539 -99.66503906 234.75073242 C-98.41106326 231.38037994 -96.55198349 228.63968416 -94.46508789 225.74633789 C-93.6067851 224.51863398 -92.74871952 223.29076421 -91.89086914 222.06274414 C-90.53902015 220.14856523 -89.18308609 218.23747169 -87.82202148 216.32983398 C-86.50424669 214.4763395 -85.2028384 212.61215038 -83.90258789 210.74633789 C-83.49528442 210.18568634 -83.08798096 209.62503479 -82.66833496 209.0473938 C-79.93676717 205.10739687 -78.90860302 201.89287187 -78.68383789 197.11352539 C-79.63384233 194.51034101 -80.58010942 192.33759382 -81.87133789 189.92602539 C-85.11198726 183.47698797 -87.58202208 177.02917741 -89.68383789 170.11352539 C-90.01383789 169.12352539 -90.34383789 168.13352539 -90.68383789 167.11352539 C-91.36784668 166.977771 -92.05185547 166.8420166 -92.7565918 166.70214844 C-127.81078898 159.73787503 -127.81078898 159.73787503 -132.68383789 158.11352539 C-132.68383789 148.87352539 -132.68383789 139.63352539 -132.68383789 130.11352539 C-129.71383789 129.12352539 -129.71383789 129.12352539 -126.68383789 128.11352539 C-126.02383789 125.47352539 -125.36383789 122.83352539 -124.68383789 120.11352539 C-118.41383789 118.79352539 -112.14383789 117.47352539 -105.68383789 116.11352539 C-104.69383789 117.76352539 -103.70383789 119.41352539 -102.68383789 121.11352539 C-98.30628433 122.24844669 -95.03494271 122.08542166 -90.68383789 121.11352539 C-90.48081055 120.30915039 -90.48081055 120.30915039 -90.27368164 119.48852539 C-87.83016201 110.59235812 -84.32474817 100.92562071 -79.40649414 93.07446289 C-78.22449151 89.86708278 -78.96852761 87.41932753 -79.68383789 84.11352539 C-80.95208215 81.57089161 -82.53865657 79.31429249 -84.19165039 77.00805664 C-84.85896683 76.03832161 -84.85896683 76.03832161 -85.5397644 75.04899597 C-86.9507344 72.99932147 -88.37757018 70.96156864 -89.80883789 68.92602539 C-91.70098687 66.23393579 -93.57612219 63.53113921 -95.44165039 60.82055664 C-95.88115021 60.20694778 -96.32065002 59.59333893 -96.77346802 58.96113586 C-99.68529288 54.72656286 -99.68529288 54.72656286 -99.67871094 51.95336914 C-97.41494778 47.76693499 -93.71229686 44.63100339 -90.37133789 41.30102539 C-89.59854492 40.49987305 -88.82575195 39.6987207 -88.02954102 38.87329102 C-86.90515625 37.74503906 -86.90515625 37.74503906 -85.75805664 36.59399414 C-85.07316162 35.90200928 -84.3882666 35.21002441 -83.68261719 34.49707031 C-81.68383789 33.11352539 -81.68383789 33.11352539 -79.6394043 33.27514648 C-76.3455541 34.68726653 -73.38146417 36.62609175 -70.37133789 38.55102539 C-69.67145752 38.98970947 -68.97157715 39.42839355 -68.25048828 39.88037109 C-64.61340422 42.1765533 -61.04571656 44.53840017 -57.54321289 47.03540039 C-56.88361572 47.49889893 -56.22401855 47.96239746 -55.54443359 48.43994141 C-54.29111413 49.32698673 -53.04924288 50.23050401 -51.82128906 51.15234375 C-48.8361068 53.2562945 -46.98520128 54.1124802 -43.30493164 54.12524414 C-38.90451264 52.89578511 -34.93049027 51.19088704 -30.80883789 49.23852539 C-29.29260299 48.52852174 -27.77436696 47.82277573 -26.25415039 47.12133789 C-25.50681641 46.76974609 -24.75948242 46.4181543 -23.98950195 46.0559082 C-21.61065991 45.08361571 -19.30071886 44.55834339 -16.80102539 43.98071289 C-14.16409925 43.10889996 -13.01690315 42.66212481 -11.5637207 40.26855469 C-10.69955335 37.56337197 -10.17374419 34.91192956 -9.68383789 32.11352539 C-9.3082373 30.28023682 -9.3082373 30.28023682 -8.92504883 28.40991211 C-8.08635661 24.29925749 -7.31867424 20.1768702 -6.55883789 16.05102539 C-6.16396999 13.9167668 -5.76749925 11.78286245 -5.36624146 9.64979553 C-5.00691008 7.73865021 -4.6535616 5.82638286 -4.30053711 3.9140625 C-3.47096224 0.14682047 -3.47096224 0.14682047 0 0 Z M30.31616211 101.11352539 C29.91268555 101.61754883 29.50920898 102.12157227 29.09350586 102.64086914 C27.31616211 104.11352539 27.31616211 104.11352539 23.94506836 104.11743164 C22.58852734 103.98053455 21.23305274 103.8327748 19.87866211 103.67602539 C6.60672376 102.53915629 -4.45196566 104.99703883 -15.34399414 113.09008789 C-23.2163161 119.89787216 -28.21467402 129.8877513 -29.62133789 140.17602539 C-30.24690605 152.4332516 -25.7894772 163.93419133 -17.68383789 173.11352539 C-6.64007611 182.43291033 3.95984374 185.47390673 18.17749023 184.38842773 C27.41950954 183.20046955 36.25746566 177.92228894 42.21850586 170.85961914 C49.63865147 160.83536323 53.53083699 150.37703515 51.75366211 137.86352539 C50.57469029 131.97702777 48.03889562 126.80006825 45.36303711 121.47290039 C44.00573954 117.11739327 44.72159943 115.30191004 46.31616211 111.11352539 C39.29956384 104.01330187 39.29956384 104.01330187 30.31616211 101.11352539 Z " fill="#518ED7" transform="translate(244.683837890625,111.886474609375)"/>
<path d="M0 0 C1.9375 1.1875 1.9375 1.1875 3 3 C3.40859509 6.84079385 3.3603151 9.85291321 1 13 C-0.65 13.66 -2.3 14.32 -4 15 C-4.33 24.24 -4.66 33.48 -5 43 C-1.37 43.66 2.26 44.32 6 45 C10.46076057 45.82073584 14.91827207 46.65766311 19.375 47.5 C20.52355469 47.71269531 21.67210937 47.92539062 22.85546875 48.14453125 C23.96277344 48.35464844 25.07007813 48.56476563 26.2109375 48.78125 C27.20399902 48.96751953 28.19706055 49.15378906 29.22021484 49.34570312 C36.3053651 51.01338297 36.3053651 51.01338297 38.15234375 53.63671875 C38.54099609 54.65185547 38.54099609 54.65185547 38.9375 55.6875 C39.41316406 56.87859375 39.41316406 56.87859375 39.8984375 58.09375 C40.26195312 59.0528125 40.62546875 60.011875 41 61 C41.75119458 62.90233551 42.50973382 64.80162215 43.26977539 66.70043945 C43.78684058 67.99652618 44.29927462 69.29447294 44.80639648 70.59448242 C45.96456404 73.54208674 47.15805535 76.27332614 48.74609375 79.01953125 C50.38409482 82.91297305 49.93990253 84.89356238 49 89 C47.72702672 91.54030209 46.14526188 93.79912051 44.4921875 96.10546875 C44.04730988 96.75195877 43.60243225 97.39844879 43.14407349 98.06452942 C41.73310349 100.11420392 40.30626771 102.15195675 38.875 104.1875 C36.98285102 106.8795896 35.1077157 109.58238618 33.2421875 112.29296875 C32.80268768 112.90657761 32.36318787 113.52018646 31.91036987 114.15238953 C29.63954524 117.37879689 29.63954524 117.37879689 29.01879883 121.17382812 C31.16557722 125.16932511 34.62766731 128.13881283 37.8125 131.3125 C38.53759766 132.06595703 39.26269531 132.81941406 40.00976562 133.59570312 C40.71423828 134.30275391 41.41871094 135.00980469 42.14453125 135.73828125 C43.10903198 136.71341675 43.10903198 136.71341675 44.09301758 137.70825195 C45.89814435 139.2227689 45.89814435 139.2227689 48.02636719 138.8269043 C51.37862761 137.42238846 54.38341993 135.44891136 57.4375 133.5 C58.14253662 133.0572876 58.84757324 132.6145752 59.57397461 132.15844727 C63.01258672 129.98051763 66.39380753 127.75231546 69.6953125 125.37109375 C70.26580322 124.96117187 70.83629395 124.55125 71.42407227 124.12890625 C72.97083655 123.0041544 74.5034902 121.86007106 76.03515625 120.71484375 C79.57162225 118.66937791 81.91274361 118.06246898 86 118 C88.60329364 118.95004432 90.77614639 119.89560097 93.1875 121.1875 C98.85191995 124.04978341 104.37863592 126.25845517 110.51171875 127.98046875 C113.57867762 129.23710339 114.90069534 130.4193544 117 133 C117.80574433 135.59432567 118.39983213 137.96602967 118.88671875 140.6171875 C119.0340596 141.3519632 119.18140045 142.08673889 119.33320618 142.84378052 C119.79905789 145.18494817 120.24343309 147.52961351 120.6875 149.875 C120.99666033 151.44428421 121.30719348 153.01329863 121.61914062 154.58203125 C122.82931167 160.70958546 123.97300074 166.83800443 125 173 C134.24 173 143.48 173 153 173 C153.66 169.37 154.32 165.74 155 162 C155.92574181 157.01409255 156.89258908 152.03752965 157.875 147.0625 C157.99697754 146.41079834 158.11895508 145.75909668 158.24462891 145.08764648 C158.6041866 143.17151351 158.98541478 141.25948702 159.3671875 139.34765625 C159.58487793 138.22367432 159.80256836 137.09969238 160.02685547 135.94165039 C161.13605465 132.58872993 162.24815559 131.17760037 165 129 C167.0871582 127.96679688 167.0871582 127.96679688 169.30078125 127.21875 C170.11353516 126.93386719 170.92628906 126.64898437 171.76367188 126.35546875 C172.60478516 126.07316406 173.44589844 125.79085937 174.3125 125.5 C181.25791274 123.16132514 181.25791274 123.16132514 187.73046875 119.78125 C191.33001072 117.82020921 192.98208887 117.34097754 197 118 C200.015625 119.546875 200.015625 119.546875 203.25 121.75 C204.13051025 122.336604 204.13051025 122.336604 205.02880859 122.93505859 C207.81939052 124.80050588 210.57957475 126.70877432 213.33886719 128.62011719 C214.96080386 129.74239587 216.58581186 130.86024884 218.21386719 131.97363281 C219.80360888 133.06243525 221.38527201 134.16314147 222.95800781 135.27636719 C223.68600586 135.77555664 224.41400391 136.27474609 225.1640625 136.7890625 C226.13013428 137.46509521 226.13013428 137.46509521 227.11572266 138.15478516 C228.96086646 139.16187846 228.96086646 139.16187846 230.99438477 138.85205078 C235.18041677 137.07368782 238.13758179 133.41655583 241.3125 130.25 C242.06595703 129.53328125 242.81941406 128.8165625 243.59570312 128.078125 C244.30275391 127.376875 245.00980469 126.675625 245.73828125 125.953125 C246.38837158 125.31536133 247.03846191 124.67759766 247.70825195 124.02050781 C249.21091977 122.07364705 249.21091977 122.07364705 248.9855957 119.67822266 C247.6797149 116.12966867 245.67515242 113.24552623 243.4921875 110.1953125 C242.57877564 108.87675312 241.66603561 107.55772814 240.75390625 106.23828125 C239.31541407 104.17662266 237.87121023 102.11966948 236.41455078 100.07080078 C235.00607701 98.08233916 233.62294293 96.07808189 232.2421875 94.0703125 C231.80268768 93.46591339 231.36318787 92.86151428 230.91036987 92.23880005 C228.71308124 89.00890217 227.99075239 87.2415203 228.1418457 83.29541016 C228.79429662 80.78992438 229.40069191 78.53782122 230.48828125 76.203125 C230.78025391 75.55947998 231.07222656 74.91583496 231.37304688 74.25268555 C231.68306641 73.59179932 231.99308594 72.93091309 232.3125 72.25 C234.52222133 67.44497214 236.45398318 62.75762502 238 57.6875 C239.49854624 53.42240686 239.49854624 53.42240686 241.5859375 51.6640625 C245.25946376 49.91552817 249.00844302 49.4677924 253 50 C255.3125 51 255.3125 51 257 53 C257.97219832 55.7387538 258.55175545 58.13087165 258 61 C257.25492187 61.73476563 256.50984375 62.46953125 255.7421875 63.2265625 C252.33301905 66.67458187 250.85447333 70.05652008 249.0625 74.5 C248.57040039 75.61955078 248.57040039 75.61955078 248.06835938 76.76171875 C247.76865234 77.49003906 247.46894531 78.21835937 247.16015625 78.96875 C246.88824463 79.62294922 246.61633301 80.27714844 246.33618164 80.95117188 C245.54883817 85.74956432 249.03540046 89.76126902 251.625 93.52734375 C252.68460937 95.08678711 252.68460937 95.08678711 253.765625 96.67773438 C255.25338722 98.8482546 256.74296714 101.01753003 258.234375 103.18554688 C259.29398437 104.74692383 259.29398437 104.74692383 260.375 106.33984375 C261.02210938 107.28206787 261.66921875 108.22429199 262.3359375 109.19506836 C264.86417998 113.45665549 266.44133925 117.45919535 265.875 122.4375 C265.81054688 123.13746094 265.74609375 123.83742188 265.6796875 124.55859375 C263.54524698 132.22540595 258.20129268 137.25948802 252.6875 142.6875 C251.95337891 143.43322266 251.21925781 144.17894531 250.46289062 144.94726562 C244.83459053 150.54560139 239.38435727 155.48488203 231.06884766 156.08618164 C221.13506028 155.67237152 213.40457663 148.65178328 205.86572266 142.87207031 C199.76532699 137.82966275 199.76532699 137.82966275 192.40380859 136.11254883 C190.11004935 136.88373062 188.12031079 137.84247784 186 139 C184.53433594 139.36931641 184.53433594 139.36931641 183.0390625 139.74609375 C180.32888686 140.5223091 178.29982695 141.35788057 176 143 C174.34086145 146.13328604 173.87425005 149.34393399 173.34814453 152.828125 C172.5961706 157.5192611 171.59012314 162.16162701 170.625 166.8125 C170.4396167 167.80290283 170.2542334 168.79330566 170.06323242 169.8137207 C168.60060441 177.02703929 166.59138202 182.30646348 160.5 186.875 C153.76223681 189.90699343 146.358967 189.18380543 139.125 189.1875 C137.87074219 189.19974609 136.61648437 189.21199219 135.32421875 189.22460938 C121.71488823 189.24621149 121.71488823 189.24621149 115.3125 185.375 C108.47828234 178.35607376 107.5652129 168.93242636 105.9375 159.6875 C105.46003957 156.98041037 104.96714214 154.27679628 104.46484375 151.57421875 C104.254646 150.38401123 104.04444824 149.19380371 103.82788086 147.9675293 C102.98444707 144.94425072 102.48228092 143.82834067 100 142 C97.5458963 140.78987301 95.15322409 139.71001534 92.625 138.6875 C91.965 138.39810547 91.305 138.10871094 90.625 137.81054688 C86.70032349 136.20104401 86.70032349 136.20104401 82.60766602 136.71020508 C79.73491642 138.13111474 77.23082889 139.77509743 74.61328125 141.625 C73.59169922 142.33140625 72.57011719 143.0378125 71.51757812 143.765625 C69.39398313 145.24605929 67.27667591 146.73555727 65.16601562 148.234375 C58.44802754 152.85062261 52.03539826 156.81338106 43.60693359 155.67749023 C36.61148804 154.05062358 31.94259218 148.89731653 27 144 C26.10410156 143.15308594 25.20820313 142.30617188 24.28515625 141.43359375 C17.58074637 134.98515253 13.05496261 129.92908867 11.78515625 120.50390625 C12.61628351 110.81749584 19.44988571 103.36119322 25.12792969 95.9206543 C30.17173938 89.78913846 30.17173938 89.78913846 31.88745117 82.39941406 C31.11644217 80.10664542 30.15806458 78.11885546 29 76 C28.75378906 75.02289063 28.50757813 74.04578125 28.25390625 73.0390625 C27.4776909 70.32888686 26.64211943 68.29982695 25 66 C21.86687134 64.34094479 18.66005197 63.87780597 15.17626953 63.35253906 C10.46096104 62.58869506 5.7977445 61.54845827 1.125 60.5625 C-0.37317261 60.27185669 -0.37317261 60.27185669 -1.90161133 59.9753418 C-9.05978469 58.50469866 -13.72043504 56.95727346 -18.3125 51 C-21.84165938 44.72593888 -21.22016081 38.3254204 -21.24023438 31.26538086 C-21.2499201 29.20450158 -21.28096078 27.14462913 -21.3125 25.08398438 C-21.34584335 16.59393449 -20.80578456 11.40909002 -16.25 4.25 C-11.39688822 -0.60311178 -6.57162394 -1.76928337 0 0 Z " fill="#000101" transform="translate(117,227)"/>
<path d="M0 0 C1.25425781 -0.01224609 2.50851562 -0.02449219 3.80078125 -0.03710938 C17.41011177 -0.05871149 17.41011177 -0.05871149 23.8125 3.8125 C30.64277493 10.82737695 31.62417328 20.32423848 33.3125 29.5625 C33.70017801 31.62867216 34.09119688 33.69416105 34.48493958 35.75918579 C34.8374715 37.61613748 35.18106279 39.47477991 35.52416992 41.33349609 C35.98438629 44.11740888 35.98438629 44.11740888 37.125 46.1875 C39.76080762 47.6773043 42.58399598 48.77035287 45.375 49.9375 C46.13941406 50.27910156 46.90382813 50.62070313 47.69140625 50.97265625 C48.43777344 51.28589844 49.18414062 51.59914062 49.953125 51.921875 C50.6327832 52.21288086 51.31244141 52.50388672 52.01269531 52.80371094 C56.84695605 53.6820579 60.82664877 50.18666886 64.6171875 47.5625 C65.65230469 46.85609375 66.68742188 46.1496875 67.75390625 45.421875 C69.91267089 43.93593833 72.06893946 42.44636864 74.22265625 40.953125 C87.37316088 32.00098023 87.37316088 32.00098023 96.05078125 33.5546875 C103.76806633 35.90911346 109.33506645 42.11363551 114.9375 47.625 C115.58404541 48.25744629 116.23059082 48.88989258 116.89672852 49.54150391 C121.69316891 54.38734058 126.30094394 59.55722533 127.0625 66.625 C127.15402344 67.30433594 127.24554688 67.98367187 127.33984375 68.68359375 C126.50871649 78.37000416 119.67511429 85.82630678 113.99707031 93.2668457 C108.95326062 99.39836154 108.95326062 99.39836154 107.23754883 106.78808594 C108.00855783 109.08085458 108.96693542 111.06864454 110.125 113.1875 C110.49431641 114.65316406 110.49431641 114.65316406 110.87109375 116.1484375 C111.6473091 118.85861314 112.48288057 120.88767305 114.125 123.1875 C117.25812866 124.84655521 120.46494803 125.30969403 123.94873047 125.83496094 C128.66403896 126.59880494 133.3272555 127.63904173 138 128.625 C139.49817261 128.91564331 139.49817261 128.91564331 141.02661133 129.2121582 C148.18478469 130.68280134 152.84543504 132.23022654 157.4375 138.1875 C160.95873301 144.4474698 160.34514518 150.822575 160.36523438 157.8671875 C160.3749037 159.91708527 160.4059364 161.9659637 160.4375 164.015625 C160.49887962 179.60604937 160.49887962 179.60604937 155.67260742 184.72924805 C152.37326044 187.58934913 150.08616287 189.09850344 145.75 189.5 C142.125 189.1875 142.125 189.1875 139.6875 187.625 C137.52103972 184.24532196 137.56211998 182.12766013 138.125 178.1875 C140 175.75 140 175.75 142.125 174.1875 C142.785 174.1875 143.445 174.1875 144.125 174.1875 C144.125 164.9475 144.125 155.7075 144.125 146.1875 C139.835 145.5275 135.545 144.8675 131.125 144.1875 C126.41599953 143.32293732 121.74155259 142.32573182 117.0625 141.3125 C115.86689453 141.06886719 114.67128906 140.82523438 113.43945312 140.57421875 C112.29283203 140.32542969 111.14621094 140.07664063 109.96484375 139.8203125 C108.93738037 139.60262207 107.90991699 139.38493164 106.85131836 139.16064453 C103.69141273 138.03273338 102.23383183 136.77166727 100.125 134.1875 C98.8515625 130.9375 98.8515625 130.9375 97.75 127.1875 C95.87249042 121.00453672 93.43440488 115.57505123 90.1640625 109.96875 C88.76727342 106.22997621 89.25140065 104.07763688 90.125 100.1875 C91.39653955 97.64650125 92.97977068 95.38833406 94.6328125 93.08203125 C95.07769012 92.43554123 95.52256775 91.78905121 95.98092651 91.12297058 C97.39189651 89.07329608 98.81873229 87.03554325 100.25 85 C102.14214898 82.3079104 104.0172843 79.60511382 105.8828125 76.89453125 C106.32231232 76.28092239 106.76181213 75.66731354 107.21463013 75.03511047 C109.4860182 71.80888231 109.4860182 71.80888231 110.10400391 68.01367188 C107.96592802 64.02544055 104.54321768 61.05158445 101.375 57.875 C100.65828125 57.12154297 99.9415625 56.36808594 99.203125 55.59179688 C98.501875 54.88474609 97.800625 54.17769531 97.078125 53.44921875 C96.44036133 52.79912842 95.80259766 52.14903809 95.14550781 51.47924805 C93.16812647 49.9348988 93.16812647 49.9348988 90.59643555 50.34692383 C88.26513718 51.13983702 86.61788263 51.94757959 84.62890625 53.375 C83.99452637 53.82254639 83.36014648 54.27009277 82.70654297 54.73120117 C82.04025879 55.21177979 81.37397461 55.6923584 80.6875 56.1875 C79.26524937 57.18491612 77.84205338 58.18098543 76.41796875 59.17578125 C75.70302246 59.67803223 74.98807617 60.1802832 74.25146484 60.69775391 C71.02375651 62.95900261 67.77950387 65.18955537 64.5 67.375 C63.41460937 68.11105469 62.32921875 68.84710938 61.2109375 69.60546875 C57.75076331 71.37935552 55.95434042 71.71199742 52.125 71.1875 C49.4765625 70.0859375 49.4765625 70.0859375 46.75 68.5625 C43.19032925 66.65984035 39.70577692 64.97828514 35.89453125 63.6640625 C35.1763623 63.4160791 34.45819336 63.1680957 33.71826172 62.91259766 C32.30794724 62.43823367 30.89158736 61.98139038 29.46923828 61.54443359 C26.12043191 60.40827583 24.39842323 59.63455115 22.52832031 56.5769043 C20.98990833 52.86121647 20.06949081 49.1977881 19.30078125 45.26953125 C19.14965378 44.53047043 18.99852631 43.79140961 18.84281921 43.029953 C18.52721371 41.47853777 18.21565241 39.92629482 17.90795898 38.37329102 C17.43651115 35.99501159 16.9527483 33.6194947 16.46679688 31.24414062 C16.16074193 29.73191565 15.85537898 28.21955042 15.55078125 26.70703125 C15.40707596 25.99762894 15.26337067 25.28822662 15.11531067 24.55732727 C14.55346102 21.71017277 14.125 19.09812126 14.125 16.1875 C4.885 16.5175 -4.355 16.8475 -13.875 17.1875 C-14.58076172 20.98121094 -14.58076172 20.98121094 -15.30078125 24.8515625 C-15.76534273 27.31437955 -16.2329867 29.77659265 -16.70092773 32.23876953 C-17.02316371 33.94324101 -17.34221852 35.64831724 -17.65795898 37.35400391 C-18.11376533 39.81320476 -18.58117032 42.26996517 -19.05078125 44.7265625 C-19.18841385 45.48305084 -19.32604645 46.23953918 -19.46784973 47.01895142 C-20.33548072 51.48546965 -21.51358727 55.22917432 -23.875 59.1875 C-26.01171875 60.40234375 -26.01171875 60.40234375 -28.5625 61.125 C-34.31602087 62.93303052 -39.67628019 65.25763743 -45.12768555 67.81420898 C-45.77133057 68.10626221 -46.41497559 68.39831543 -47.078125 68.69921875 C-47.64176758 68.96178467 -48.20541016 69.22435059 -48.78613281 69.49487305 C-53.2830358 70.98595694 -56.53431306 71.78853417 -60.96118164 69.80395508 C-61.97559326 69.11197021 -62.99000488 68.41998535 -64.03515625 67.70703125 C-64.58811874 67.33777023 -65.14108124 66.96850922 -65.71080017 66.58805847 C-67.46596117 65.40994137 -69.20137444 64.20594454 -70.9375 63 C-72.10620896 62.20849255 -73.27612261 61.41876084 -74.44726562 60.63085938 C-76.6121186 59.17058791 -78.76723288 57.69892208 -80.91821289 56.21801758 C-81.89395264 55.54794678 -82.86969238 54.87787598 -83.875 54.1875 C-84.90681396 53.42139404 -85.93862793 52.65528809 -87.00170898 51.8659668 C-89.62699958 49.99903256 -89.62699958 49.99903256 -92.00463867 50.22363281 C-96.03601555 52.30115219 -99.00681539 55.76519297 -102.1875 58.9375 C-103.31768555 60.01257813 -103.31768555 60.01257813 -104.47070312 61.109375 C-105.17775391 61.810625 -105.88480469 62.511875 -106.61328125 63.234375 C-107.26337158 63.87213867 -107.91346191 64.50990234 -108.58325195 65.16699219 C-110.08591977 67.11385295 -110.08591977 67.11385295 -109.8605957 69.50927734 C-108.5547149 73.05783133 -106.55015242 75.94197377 -104.3671875 78.9921875 C-103.45377564 80.31074688 -102.54103561 81.62977186 -101.62890625 82.94921875 C-100.19041407 85.01087734 -98.74621023 87.06783052 -97.28955078 89.11669922 C-95.88107701 91.10516084 -94.49794293 93.10941811 -93.1171875 95.1171875 C-92.67768768 95.72158661 -92.23818787 96.32598572 -91.78536987 96.94869995 C-89.58479518 100.18342816 -88.86612136 101.9512381 -89.01464844 105.90356445 C-90.00462219 109.68226394 -91.48934606 113.0352248 -93.25 116.5 C-95.41487028 120.90563386 -97.29684907 125.10936467 -98.5625 129.875 C-99.61386289 133.64238371 -100.40797603 136.03232294 -103.875 138.1875 C-107.61081773 139.28128581 -110.64304191 139.66133003 -114.3125 138.25 C-116.69531614 135.1046827 -117.16070778 132.0271338 -116.875 128.1875 C-115.3125 124.5625 -115.3125 124.5625 -114.20703125 122.59765625 C-112.47765707 119.468554 -110.96916568 116.25644613 -109.5 113 C-108.95601562 111.83082031 -108.41203125 110.66164063 -107.8515625 109.45703125 C-106.68322212 105.54542765 -107.13146705 104.76382526 -108.875 101.1875 C-110.03866483 99.31651953 -111.25160887 97.47570117 -112.5 95.66015625 C-113.20640625 94.62052734 -113.9128125 93.58089844 -114.640625 92.50976562 C-116.12838722 90.3392454 -117.61796714 88.16996997 -119.109375 86.00195312 C-119.81578125 84.96103516 -120.5221875 83.92011719 -121.25 82.84765625 C-121.89710938 81.90543213 -122.54421875 80.96320801 -123.2109375 79.99243164 C-125.73917998 75.73084451 -127.31633925 71.72830465 -126.75 66.75 C-126.68554688 66.05003906 -126.62109375 65.35007812 -126.5546875 64.62890625 C-124.42024698 56.96209405 -119.07629268 51.92801198 -113.5625 46.5 C-112.82837891 45.75427734 -112.09425781 45.00855469 -111.33789062 44.24023438 C-105.70959053 38.64189861 -100.25935727 33.70261797 -91.94384766 33.10131836 C-82.01006028 33.51512848 -74.27957663 40.53571672 -66.74072266 46.31542969 C-60.64032699 51.35783725 -60.64032699 51.35783725 -53.27880859 53.07495117 C-50.98504935 52.30376938 -48.99531079 51.34502216 -46.875 50.1875 C-45.89789063 49.94128906 -44.92078125 49.69507813 -43.9140625 49.44140625 C-41.20388686 48.6651909 -39.17482695 47.82961943 -36.875 46.1875 C-35.21586145 43.05421396 -34.74925005 39.84356601 -34.22314453 36.359375 C-33.4711706 31.6682389 -32.46512314 27.02587299 -31.5 22.375 C-31.3146167 21.38459717 -31.1292334 20.39419434 -30.93823242 19.3737793 C-29.47560441 12.16046071 -27.46638202 6.88103652 -21.375 2.3125 C-14.63723681 -0.71949343 -7.233967 0.00369457 0 0 Z " fill="#000101" transform="translate(255.875,95.8125)"/>
<path d="M0 0 C1.97342721 3.31894576 1.91633422 5.52316044 1.375 9.3125 C-0.1875 11.5546875 -0.1875 11.5546875 -2.625 13.3125 C-5.29276427 13.39061022 -7.51219682 13.27566011 -10.125 12.9375 C-22.34521644 11.80656243 -32.02607425 13.79391186 -42.625 20.3125 C-43.6318569 21.30559576 -44.6340766 22.30350505 -45.625 23.3125 C-46.285 23.3125 -46.945 23.3125 -47.625 23.3125 C-47.90472656 23.89515625 -48.18445313 24.4778125 -48.47265625 25.078125 C-49.55675713 27.18017822 -50.75644772 29.09324984 -52.0625 31.0625 C-58.02915934 40.60211464 -59.7964787 50.35015036 -57.4921875 61.4296875 C-55.50194883 68.04588632 -52.5858958 74.45526471 -47.625 79.3125 C-47.625 79.9725 -47.625 80.6325 -47.625 81.3125 C-47.06554687 81.580625 -46.50609375 81.84875 -45.9296875 82.125 C-42.58575573 83.84797501 -39.44346743 85.87772418 -36.2578125 87.875 C-27.26058118 92.78743491 -15.80520272 92.92068178 -5.9921875 90.3671875 C-0.38588656 88.13309765 3.95673902 85.38195091 8.375 81.3125 C9.035 81.3125 9.695 81.3125 10.375 81.3125 C10.643125 80.75304687 10.91125 80.19359375 11.1875 79.6171875 C12.46532806 77.13719225 13.89987023 74.80508328 15.375 72.4375 C20.95770083 63.11941541 22.3999016 53.97699167 20.26171875 43.31640625 C18.84017705 38.50069892 16.65144975 34.05893677 14.421875 29.57421875 C13.1529098 25.62053987 13.53166781 23.98327358 15.375 20.3125 C19.13999581 17.8025028 20.91793606 17.69773256 25.375 18.3125 C34.16465254 26.05576533 36.66978331 38.40263714 37.6640625 49.5546875 C38.32602648 64.91921989 32.73949269 78.65115337 23.125 90.5 C13.63834526 100.79623797 -0.59666281 107.84800452 -14.66796875 108.6484375 C-30.92966087 109.00385248 -45.77526932 104.33493462 -57.9765625 93.0859375 C-69.96828559 80.18488943 -75.20642171 65.25708774 -74.8671875 47.82421875 C-73.9216763 34.11430635 -67.81685199 20.66830163 -57.625 11.3125 C-43.16656825 -0.751254 -17.96910058 -11.55156466 0 0 Z " fill="#000102" transform="translate(274.625,203.6875)"/>
<path d="M0 0 C4.84337317 1.14161253 7.74876897 6.00775255 10.74951172 9.70043945 C12.46810329 11.63605454 13.90611338 13.1636082 16.12646484 14.5012207 C19.36551343 14.49320843 22.08621901 13.54346765 25.12646484 12.5012207 C33.7757336 11.55520693 41.19321776 13.25191981 48.37646484 18.1887207 C53.84678258 22.60202485 57.49602379 28.28258483 58.90380859 35.23950195 C59.75833399 43.91968099 58.53967509 51.53756011 53.12646484 58.5012207 C46.43343002 65.69939023 40.59216872 68.61833923 30.81396484 69.0012207 C21.89708892 68.79876449 15.90833951 66.20449705 9.25146484 60.3762207 C3.78721051 54.43400559 1.61923243 46.68574502 1.80224609 38.73168945 C2.12646484 36.5012207 2.12646484 36.5012207 3.04443359 34.17700195 C4.12784068 31.23902903 4.59478935 29.62927498 4.12646484 26.5012207 C0.97234154 21.95907164 -3.34926899 18.3298672 -7.53491211 14.76293945 C-9.82006628 12.60906807 -9.8905532 11.31742578 -10.18603516 8.1262207 C-9.87353516 4.5012207 -9.87353516 4.5012207 -8.37353516 2.0637207 C-5.53091677 0.28708421 -3.33796186 -0.06478904 0 0 Z " fill="#010000" transform="translate(386.87353515625,376.498779296875)"/>
<path d="M0 0 C5.44978072 4.13973728 8.1217762 8.91293319 11 15 C11.64026123 15.00410889 12.28052246 15.00821777 12.94018555 15.01245117 C15.85687905 15.04546038 18.77150384 15.11611026 21.6875 15.1875 C23.19860352 15.19620117 23.19860352 15.19620117 24.74023438 15.20507812 C32.23273732 15.42762772 32.23273732 15.42762772 36.16796875 18.36328125 C38 21 38 21 38.625 24 C37.74733637 28.21278544 36.45942607 29.41929374 33 32 C29.2332585 32.75349707 25.52029726 32.79043015 21.6875 32.8125 C20.66076172 32.83763672 19.63402344 32.86277344 18.57617188 32.88867188 C16.050396 32.94741085 13.52634772 32.98378712 11 33 C10.74750488 33.53399414 10.49500977 34.06798828 10.23486328 34.61816406 C6.25724747 42.83495801 1.64250176 48.23385783 -7.19140625 51.33984375 C-15.01233809 53.17814345 -22.82619522 53.03810582 -30.0078125 49.25 C-36.94647559 44.89632904 -41.65204398 40.04717967 -44 32 C-45.17076366 22.61485388 -44.95440415 13.81425436 -39 6 C-28.89751443 -5.33029299 -13.28649574 -7.92979235 0 0 Z " fill="#000000" transform="translate(44,232)"/>
<path d="M0 0 C7.38028676 5.27355035 11.03882872 10.60405801 13.1484375 19.53515625 C13.67332776 23.54159706 13.72858874 27.06626268 12.23046875 30.859375 C11.14706166 33.79734793 10.68011299 35.40710197 11.1484375 38.53515625 C14.3025608 43.07730531 18.62417133 46.70650976 22.80981445 50.2734375 C25.09496863 52.42730888 25.16545555 53.71895117 25.4609375 56.91015625 C25.1484375 60.53515625 25.1484375 60.53515625 23.6484375 62.97265625 C20.80479161 64.74993493 18.60964611 65.10117412 15.27050781 65.03637695 C11.11718839 64.05538699 8.90187921 60.56609616 6.2734375 57.41015625 C2.06944308 52.46102588 2.06944308 52.46102588 -3.66015625 50.05078125 C-6.18979853 50.66641962 -8.44848175 51.54204635 -10.8515625 52.53515625 C-19.04891746 53.58073724 -26.33532691 51.50658395 -33.1015625 46.84765625 C-38.57592684 42.43108741 -42.20871124 36.75696819 -43.6328125 29.80078125 C-44.51463595 20.66760985 -43.04848294 12.84398807 -37.34765625 5.6328125 C-27.7824221 -4.86453263 -12.41103876 -7.4012673 0 0 Z " fill="#010000" transform="translate(109.8515625,70.46484375)"/>
<path d="M0 0 C2.5 1.5625 2.5 1.5625 4 4 C4.6875 7.25 4.6875 7.25 4 11 C1.49510947 14.74260115 -1.61377153 17.86722375 -5.09375 20.7109375 C-7.08332144 22.39259907 -8.62684089 23.78112038 -10 26 C-9.9910375 28.68874892 -9.4376843 30.87435201 -8.703125 33.45703125 C-6.78038017 40.41095839 -7.64700457 47.63463091 -11 54 C-15.684134 60.57524401 -20.88555159 66.28601754 -29 68 C-38.27064984 69.05046967 -46.36753604 68.74858901 -54 63 C-61.17256146 56.37184549 -64.49032079 49.86320851 -65.05859375 40.09375 C-64.90326999 31.89265529 -61.89287009 24.73327152 -56 19 C-49.65762167 14.33469286 -44.16057126 11.87712885 -36.25 11.8125 C-35.08210938 11.79123047 -35.08210938 11.79123047 -33.890625 11.76953125 C-31 12 -31 12 -28.91430664 12.70019531 C-26.50194705 13.47726945 -24.53960303 13.98875797 -22 14 C-19.05732381 12.22708095 -17.08893038 9.77253078 -14.9375 7.125 C-10.14446226 1.33364255 -7.74423968 -1.12953758 0 0 Z " fill="#010000" transform="translate(131,377)"/>
<path d="M0 0 C6.93866309 4.35367096 11.64423148 9.20282033 13.9921875 17.25 C15.16512601 26.65258024 14.91307359 35.39545744 8.9921875 43.25 C3.96502092 48.98820503 -2.53480599 52.69999418 -10.12109375 53.6328125 C-19.31345519 53.95686754 -27.00870061 52.36437901 -33.8828125 46 C-37.20662283 42.62608198 -39.00594328 38.4836915 -41.0078125 34.25 C-41.64807373 34.24589111 -42.28833496 34.24178223 -42.94799805 34.23754883 C-45.86469155 34.20453962 -48.77931634 34.13388974 -51.6953125 34.0625 C-53.20641602 34.05379883 -53.20641602 34.05379883 -54.74804688 34.04492188 C-62.24054982 33.82237228 -62.24054982 33.82237228 -66.17578125 30.88671875 C-68.0078125 28.25 -68.0078125 28.25 -68.6328125 25.25 C-67.75514887 21.03721456 -66.46723857 19.83070626 -63.0078125 17.25 C-59.241071 16.49650293 -55.52810976 16.45956985 -51.6953125 16.4375 C-50.66857422 16.41236328 -49.64183594 16.38722656 -48.58398438 16.36132812 C-46.0582085 16.30258915 -43.53416022 16.26621288 -41.0078125 16.25 C-40.75531738 15.71600586 -40.50282227 15.18201172 -40.24267578 14.63183594 C-36.26505997 6.41504199 -31.65031426 1.01614217 -22.81640625 -2.08984375 C-14.99547441 -3.92814345 -7.18161728 -3.78810582 0 0 Z " fill="#000000" transform="translate(498.0078125,230.75)"/>
<path d="M0 0 C6.11965276 4.60917585 11.22849379 10.65540024 12.65234375 18.30859375 C13.73725083 27.16866824 12.58042928 34.38521546 7.58984375 41.87109375 C2.95850987 47.57921276 -3.55642132 51.57617155 -10.84765625 52.62109375 C-12.24046296 52.7322082 -13.63798584 52.79548709 -15.03515625 52.80859375 C-16.21078125 52.82599609 -16.21078125 52.82599609 -17.41015625 52.84375 C-19.84765625 52.62109375 -19.84765625 52.62109375 -22.16015625 51.6796875 C-25.13756019 50.50929352 -26.65753911 50.07092056 -29.84765625 50.62109375 C-33.20259616 53.17705263 -35.98284895 56.30764344 -38.67456055 59.53955078 C-42.85561376 64.38677907 -42.85561376 64.38677907 -45.96972656 65.12231445 C-49.30886486 65.18711162 -51.50401036 64.83587243 -54.34765625 63.05859375 C-56.52837288 59.51492923 -56.60097348 57.73009681 -55.84765625 53.62109375 C-53.34276572 49.8784926 -50.23388472 46.75387 -46.75390625 43.91015625 C-44.76433481 42.22849468 -43.22081536 40.83997337 -41.84765625 38.62109375 C-41.85662 35.93196948 -42.41161138 33.74093467 -43.140625 31.15625 C-45.34641654 23.24708586 -43.60318673 15.79362801 -39.84765625 8.62109375 C-30.53863368 -3.94503603 -13.87359062 -8.14871462 0 0 Z " fill="#000000" transform="translate(432.84765625,70.37890625)"/>
<path d="M0 0 C4.21729101 0.87860229 5.43895156 2.1459208 8 5.625 C8.61431889 9.41417278 8.47160252 13.11169639 8.3125 16.9375 C8.28994141 17.96423828 8.26738281 18.99097656 8.24414062 20.04882812 C8.18537575 22.5757179 8.10327849 25.09960255 8 27.625 C8.9178125 27.91375 9.835625 28.2025 10.78125 28.5 C19.19342314 31.44017702 23.04844133 36.80144425 27 44.625 C29.58282669 52.37348008 28.89717701 60.76905303 25.5 68.125 C22.51591584 73.39805224 19.25510433 76.67094727 14 79.625 C12.96875 80.24375 11.9375 80.8625 10.875 81.5 C4.16636006 84.02147059 -3.63108852 83.69319144 -10.36328125 81.55859375 C-17.04284701 78.50579097 -21.40147925 75.02657901 -25 68.625 C-25.61875 67.59375 -26.2375 66.5625 -26.875 65.5 C-29.31684504 59.07176938 -29.12943277 51.13879084 -27.05078125 44.671875 C-23.28914679 36.74515001 -17.73785004 31.63911647 -10 27.625 C-9.34 27.625 -8.68 27.625 -8 27.625 C-8.02618408 26.98473877 -8.05236816 26.34447754 -8.0793457 25.68481445 C-8.18361281 22.76929498 -8.24841753 19.85416802 -8.3125 16.9375 C-8.35439453 15.93009766 -8.39628906 14.92269531 -8.43945312 13.88476562 C-8.56312932 6.38998807 -8.56312932 6.38998807 -5.66796875 2.45703125 C-3 0.625 -3 0.625 0 0 Z " fill="#010100" transform="translate(256,429.375)"/>
<path d="M0 0 C3.84443314 2.75605481 6.26599037 5.73945333 8.56640625 9.83984375 C9.49453125 11.41765625 9.49453125 11.41765625 10.44140625 13.02734375 C13.20995341 22.40964246 12.1709259 31.27479322 7.56640625 39.83984375 C4.38479966 45.22410105 -0.96527141 48.0675758 -6.43359375 50.83984375 C-7.09359375 50.83984375 -7.75359375 50.83984375 -8.43359375 50.83984375 C-8.39431763 51.8002356 -8.39431763 51.8002356 -8.35424805 52.7800293 C-8.24998094 55.69554877 -8.18517622 58.61067573 -8.12109375 61.52734375 C-8.07919922 62.53474609 -8.03730469 63.54214844 -7.99414062 64.58007812 C-7.87046443 72.07485568 -7.87046443 72.07485568 -10.765625 76.0078125 C-13.43359375 77.83984375 -13.43359375 77.83984375 -16.43359375 78.46484375 C-20.65088476 77.58624146 -21.87254531 76.31892295 -24.43359375 72.83984375 C-25.04791264 69.05067097 -24.90519627 65.35314736 -24.74609375 61.52734375 C-24.72353516 60.50060547 -24.70097656 59.47386719 -24.67773438 58.41601562 C-24.6189695 55.88912585 -24.53687224 53.3652412 -24.43359375 50.83984375 C-25.35140625 50.55109375 -26.26921875 50.26234375 -27.21484375 49.96484375 C-35.62701689 47.02466673 -39.48203508 41.6633995 -43.43359375 33.83984375 C-46.01642044 26.09136367 -45.33077076 17.69579072 -41.93359375 10.33984375 C-38.94950959 5.06679151 -35.68869808 1.79389648 -30.43359375 -1.16015625 C-29.40234375 -1.77890625 -28.37109375 -2.39765625 -27.30859375 -3.03515625 C-18.08964437 -6.50013722 -8.32871827 -4.71332259 0 0 Z " fill="#010100" transform="translate(272.43359375,4.16015625)"/>
<path d="M0 0 C4.480558 1.6587445 7.62314365 5.72486893 10.9465332 9.04003906 C12.14826172 10.18666016 12.14826172 10.18666016 13.37426758 11.35644531 C14.12643555 12.1028125 14.87860352 12.84917969 15.65356445 13.61816406 C16.34554932 14.29782227 17.03753418 14.97748047 17.75048828 15.67773438 C19.1340332 17.79003906 19.1340332 17.79003906 19.1015625 20.15112305 C17.88057805 23.48133272 16.12021813 26.2741337 14.1340332 29.18457031 C13.73829102 29.77678879 13.34254883 30.36900726 12.93481445 30.97917175 C12.10137999 32.22296629 11.26406116 33.46416582 10.4230957 34.70288086 C9.13020657 36.60817827 7.84999686 38.5215241 6.5715332 40.43652344 C5.7597581 41.64469311 4.94728277 42.85239265 4.1340332 44.05957031 C3.74860352 44.63447708 3.36317383 45.20938385 2.96606445 45.80171204 C2.04839635 47.14947235 1.09490302 48.47273052 0.1340332 49.79003906 C-0.1959668 49.79003906 -0.5259668 49.79003906 -0.8659668 49.79003906 C-0.85811157 48.24848145 -0.85811157 48.24848145 -0.85009766 46.67578125 C-0.83178667 42.80664974 -0.82044094 38.93752192 -0.81103516 35.06835938 C-0.80605388 33.40429029 -0.79926643 31.74022547 -0.79052734 30.07617188 C-0.39432242 15.85670806 -0.39432242 15.85670806 -1.8659668 1.79003906 C-2.5259668 1.46003906 -3.1859668 1.13003906 -3.8659668 0.79003906 C-1.8659668 -0.20996094 -1.8659668 -0.20996094 0 0 Z " fill="#0672CC" transform="translate(347.865966796875,145.2099609375)"/>
<path d="M0 0 C3.92670595 2.11438013 6.63262715 4.23125126 9 8 C9.79893471 12.03462028 9.92775262 16.19603657 8.015625 19.9140625 C5.73225636 22.77532074 3.36933669 24.65601598 0 26 C-4.78779839 26.33403245 -8.15021351 25.66898085 -11.9375 22.6875 C-15.57718821 17.94487596 -16.63440578 15.13258917 -16 9 C-12.32317126 1.9187002 -8.0382172 -0.98714948 0 0 Z " fill="#F7DA73" transform="translate(31,243)"/>
<path d="M0 0 C3.90756036 3.15930412 6.78568625 6.14261412 7.375 11.25 C6.93032381 15.69676194 5.86547285 18.57735188 3 22 C-1.01132797 24.70328624 -4.192379 25.7011114 -9 25 C-12.89697826 22.86048252 -15.64242605 20.76396533 -18 17 C-18.79893471 12.96537972 -18.92775262 8.80396343 -17.015625 5.0859375 C-12.18015943 -0.97331874 -7.23213074 -2.02757951 0 0 Z " fill="#F8DA73" transform="translate(490,244)"/>
<path d="M0 0 C3.8076546 2.01159111 7.04834016 4.09668033 9 8 C9.53984503 13.57839862 9.22031416 17.22505142 6 22 C2.21498501 25.44092272 -1.71560657 25.50888729 -6.625 25.35546875 C-10.04405475 24.84373523 -11.72750658 23.5565551 -14 21 C-16.49409464 16.75737639 -16.835427 12.82041381 -16 8 C-12.44101972 1.52539357 -7.24681078 -1.12545167 0 0 Z " fill="#FADC74" transform="translate(421,82)"/>
<path d="M0 0 C8.26901331 4.70198796 8.26901331 4.70198796 9.65234375 9.05078125 C10.18907343 13.30785636 10.28343852 15.43312296 8.3125 19.375 C3.64391776 24.67447173 3.64391776 24.67447173 -0.3671875 25.46875 C-4.72839788 25.5230953 -7.99129387 25.5500512 -11.5 22.75 C-14.13366873 19.8529644 -15.84302239 17.79870181 -16.1875 13.8515625 C-15.7371697 8.50389019 -14.56742058 5.70922465 -10.5703125 2.09375 C-7.19126423 -0.25981596 -3.98096902 -0.39029108 0 0 Z " fill="#F9DB74" transform="translate(259,15)"/>
<path d="M0 0 C3.20384041 1.29516953 4.5905657 2.51997358 6.8125 5.125 C8.48348384 9.17053981 8.81202898 12.68941627 8 17 C6.25693868 20.38569936 3.88973835 22.49809631 0.5625 24.375 C-4.10641966 25.51376089 -6.86667693 25.59999457 -11.1875 23.3125 C-14.6726542 20.44692877 -16.64322193 18.4181625 -17.31640625 13.85546875 C-17.52535486 9.79108123 -17.36224697 7.58708991 -15.1875 4.0625 C-10.27542166 -0.56888815 -6.47642165 -0.66318558 0 0 Z " fill="#FADC74" transform="translate(422,405)"/>
<path d="M0 0 C3.8026029 2.0050088 5.61790841 3.42686262 8 7 C8.59992545 11.16052196 8.43783544 14.9054114 6.875 18.8125 C3.53931703 22.70413013 0.62182097 24.76831129 -4.5 25.5 C-9.46611832 24.79055453 -12.21920383 22.60271656 -15.875 19.3125 C-17.67442716 15.61367749 -17.52633309 12.03041366 -17 8 C-15.699544 4.85152757 -14.4485648 3.38259939 -11.875 1.1875 C-7.83934715 -0.47940009 -4.30510495 -0.69730573 0 0 Z " fill="#FADC74" transform="translate(99,405)"/>
<path d="M0 0 C3.21877104 1.65536796 5.28043944 3.98607376 7.375 6.9375 C8.69420276 11.29086911 8.48163573 14.07377744 6.375 18.125 C3.3317648 21.80891629 0.773835 24.66136305 -4.17578125 25.265625 C-7.7317063 25.14609811 -10.10480083 24.7497293 -12.875 22.4296875 C-15.65706376 19.23298924 -17.82537995 16.53665643 -18.3125 12.25 C-17.8541314 7.48296652 -15.69537635 4.51862435 -12.1640625 1.35546875 C-8.33786742 -1.04108304 -4.35072777 -0.74113344 0 0 Z " fill="#F9DC74" transform="translate(261,472)"/>
<path d="M0 0 C5.47591561 4.48029459 5.47591561 4.48029459 6.06640625 8.29296875 C6.34987232 13.75197667 5.46184307 17.02262317 1.75 21.25 C-2.46910146 23.83276232 -6.43413421 23.79275411 -11.25 23.25 C-14.7678347 21.87345599 -15.95282619 20.69063702 -18.0625 17.5625 C-19.48083783 13.60608395 -20.14186787 10.39553401 -19.25 6.25 C-15.02309463 -1.36513904 -7.88774159 -4.24724547 0 0 Z " fill="#FADD75" transform="translate(101.25,83.75)"/>
<path d="M0 0 C0.72598389 0.0714624 1.45196777 0.1429248 2.19995117 0.21655273 C11.9196451 1.07760105 21.56257448 1.11554856 31.3125 1.0625 C32.93945173 1.05747003 34.56640499 1.0529098 36.19335938 1.04882812 C40.12894475 1.03795245 44.06445493 1.02077226 48 1 C45.52331389 3.58616431 43.12384637 5.73833386 40.1015625 7.65625 C39.37453125 8.12160156 38.6475 8.58695312 37.8984375 9.06640625 C37.14820313 9.53949219 36.39796875 10.01257813 35.625 10.5 C34.13780156 11.44757261 32.65081851 12.39548336 31.1640625 13.34375 C30.09720215 14.01470703 30.09720215 14.01470703 29.00878906 14.69921875 C27.19060764 15.87657298 25.45826458 17.12787871 23.7109375 18.40625 C21 20 21 20 19.08740234 19.83374023 C16.40824503 18.76364407 14.92488497 17.29693867 12.890625 15.25390625 C12.13652344 14.49916016 11.38242188 13.74441406 10.60546875 12.96679688 C9.82816406 12.17337891 9.05085937 11.37996094 8.25 10.5625 C7.45722656 9.77294922 6.66445312 8.98339844 5.84765625 8.16992188 C0 2.26690915 0 2.26690915 0 0 Z " fill="#0571CB" transform="translate(145,347)"/>
</svg>
